<svg width="290" height="63" viewBox="0 0 290 63" fill="none" xmlns="http://www.w3.org/2000/svg">
<rect x="1.5" y="1.5" width="287" height="57" rx="28.5" fill="white" stroke="black" stroke-width="5"/>
<path d="M34 6C20.748 6 10 16.746 10 30C10 40.604 16.876 49.6 26.414 52.774C27.612 52.996 28 52.252 28 51.62V47.152C21.324 48.604 19.934 44.32 19.934 44.32C18.842 41.546 17.268 40.808 17.268 40.808C15.09 39.318 17.434 39.35 17.434 39.35C19.844 39.518 21.112 41.824 21.112 41.824C23.252 45.492 26.726 44.432 28.096 43.818C28.31 42.268 28.932 41.208 29.62 40.61C24.29 40 18.686 37.942 18.686 28.748C18.686 26.126 19.624 23.986 21.158 22.306C20.91 21.7 20.088 19.258 21.392 15.954C21.392 15.954 23.408 15.31 27.994 18.414C29.908 17.882 31.96 17.616 34 17.606C36.04 17.616 38.094 17.882 40.012 18.414C44.594 15.31 46.606 15.954 46.606 15.954C47.912 19.26 47.09 21.702 46.842 22.306C48.382 23.986 49.312 26.128 49.312 28.748C49.312 37.966 43.698 39.996 38.354 40.59C39.214 41.334 40 42.794 40 45.034V51.62C40 52.258 40.384 53.008 41.602 52.772C51.132 49.594 58 40.6 58 30C58 16.746 47.254 6 34 6Z" fill="black"/>
<path d="M81.5781 41.1094C80.8073 41.5573 80.0104 41.8906 79.1875 42.1094C78.375 42.3385 77.5417 42.4531 76.6875 42.4531C73.9792 42.4531 71.8594 41.6406 70.3281 40.0156C68.8073 38.3906 68.0469 36.1406 68.0469 33.2656C68.0469 30.3906 68.8073 28.1406 70.3281 26.5156C71.8594 24.8906 73.9792 24.0781 76.6875 24.0781C77.5312 24.0781 78.3542 24.1875 79.1562 24.4062C79.9583 24.625 80.7656 24.9635 81.5781 25.4219V28.4375C80.8177 27.7604 80.0521 27.2708 79.2812 26.9688C78.5208 26.6667 77.6562 26.5156 76.6875 26.5156C74.8854 26.5156 73.5 27.099 72.5312 28.2656C71.5625 29.4323 71.0781 31.099 71.0781 33.2656C71.0781 35.4219 71.5625 37.0885 72.5312 38.2656C73.5104 39.4323 74.8958 40.0156 76.6875 40.0156C77.6875 40.0156 78.5833 39.8646 79.375 39.5625C80.1667 39.25 80.901 38.7708 81.5781 38.125V41.1094ZM102.303 31.1562V42H99.4125V31.1562C99.4125 29.5833 99.1365 28.4271 98.5844 27.6875C98.0323 26.9479 97.1677 26.5781 95.9906 26.5781C94.6469 26.5781 93.6104 27.0573 92.8813 28.0156C92.1625 28.9635 91.8031 30.3281 91.8031 32.1094V42H88.9281V17.6875H91.8031V27.125C92.3135 26.125 93.0063 25.3698 93.8813 24.8594C94.7563 24.3385 95.7927 24.0781 96.9906 24.0781C98.7719 24.0781 100.1 24.6667 100.975 25.8438C101.86 27.0104 102.303 28.7812 102.303 31.1562ZM109.809 35.375V24.5312H112.684V35.375C112.684 36.9479 112.96 38.1042 113.513 38.8438C114.075 39.5833 114.94 39.9531 116.106 39.9531C117.46 39.9531 118.497 39.4792 119.216 38.5312C119.934 37.5729 120.294 36.2031 120.294 34.4219V24.5312H123.184V42H120.294V39.375C119.783 40.3854 119.085 41.151 118.2 41.6719C117.325 42.1927 116.299 42.4531 115.122 42.4531C113.33 42.4531 111.997 41.8698 111.122 40.7031C110.247 39.526 109.809 37.75 109.809 35.375ZM138.612 33.2031H137.659C135.982 33.2031 134.717 33.5 133.862 34.0938C133.019 34.6771 132.597 35.5521 132.597 36.7188C132.597 37.7708 132.915 38.5885 133.55 39.1719C134.185 39.7552 135.066 40.0469 136.191 40.0469C137.774 40.0469 139.019 39.5 139.925 38.4062C140.831 37.3021 141.29 35.7812 141.3 33.8438V33.2031H138.612ZM144.191 32.0156V42H141.3V39.4062C140.685 40.4479 139.909 41.2188 138.972 41.7188C138.045 42.2083 136.915 42.4531 135.581 42.4531C133.8 42.4531 132.378 41.9531 131.316 40.9531C130.253 39.9427 129.722 38.5938 129.722 36.9062C129.722 34.9583 130.373 33.4792 131.675 32.4688C132.987 31.4583 134.909 30.9531 137.441 30.9531H141.3V30.5C141.29 29.1042 140.935 28.0938 140.237 27.4688C139.54 26.8333 138.425 26.5156 136.894 26.5156C135.915 26.5156 134.925 26.6562 133.925 26.9375C132.925 27.2188 131.951 27.6302 131.003 28.1719V25.2969C132.066 24.8906 133.081 24.5885 134.05 24.3906C135.029 24.1823 135.977 24.0781 136.894 24.0781C138.342 24.0781 139.576 24.2917 140.597 24.7188C141.628 25.1458 142.461 25.7865 143.097 26.6406C143.493 27.1615 143.774 27.8073 143.941 28.5781C144.107 29.3385 144.191 30.4844 144.191 32.0156ZM164.947 31.1562V42H162.056V31.1562C162.056 29.5833 161.78 28.4271 161.228 27.6875C160.676 26.9479 159.811 26.5781 158.634 26.5781C157.291 26.5781 156.254 27.0573 155.525 28.0156C154.806 28.9635 154.447 30.3281 154.447 32.1094V42H151.572V24.5H154.447V27.125C154.957 26.125 155.65 25.3698 156.525 24.8594C157.4 24.3385 158.436 24.0781 159.634 24.0781C161.416 24.0781 162.744 24.6667 163.619 25.8438C164.504 27.0104 164.947 28.7812 164.947 31.1562ZM179.969 26.2812C180.323 25.5312 180.771 24.9792 181.312 24.625C181.865 24.2604 182.526 24.0781 183.297 24.0781C184.703 24.0781 185.693 24.625 186.266 25.7188C186.849 26.8021 187.141 28.849 187.141 31.8594V42H184.516V31.9844C184.516 29.5156 184.375 27.9844 184.094 27.3906C183.823 26.7865 183.323 26.4844 182.594 26.4844C181.76 26.4844 181.188 26.8073 180.875 27.4531C180.573 28.0885 180.422 29.599 180.422 31.9844V42H177.797V31.9844C177.797 29.4844 177.646 27.9427 177.344 27.3594C177.052 26.776 176.521 26.4844 175.75 26.4844C174.99 26.4844 174.458 26.8073 174.156 27.4531C173.865 28.0885 173.719 29.599 173.719 31.9844V42H171.109V24.5H173.719V26C174.062 25.375 174.49 24.901 175 24.5781C175.521 24.2448 176.109 24.0781 176.766 24.0781C177.557 24.0781 178.214 24.2604 178.734 24.625C179.266 24.9896 179.677 25.5417 179.969 26.2812ZM194.287 24.5H201.647V39.7656H207.35V42H193.069V39.7656H198.772V26.7344H194.287V24.5ZM198.772 17.6875H201.647V21.3281H198.772V17.6875ZM227.591 31.1562V42H224.7V31.1562C224.7 29.5833 224.424 28.4271 223.872 27.6875C223.32 26.9479 222.455 26.5781 221.278 26.5781C219.934 26.5781 218.898 27.0573 218.169 28.0156C217.45 28.9635 217.091 30.3281 217.091 32.1094V42H214.216V24.5H217.091V27.125C217.601 26.125 218.294 25.3698 219.169 24.8594C220.044 24.3385 221.08 24.0781 222.278 24.0781C224.059 24.0781 225.387 24.6667 226.262 25.8438C227.148 27.0104 227.591 28.7812 227.591 31.1562ZM236.269 39.3438H241.175V21.5156L235.894 22.7031V19.8281L241.144 18.6719H244.3V39.3438H249.144V42H236.269V39.3438ZM265.056 29.5156C266.587 29.9219 267.759 30.6458 268.572 31.6875C269.384 32.7188 269.791 34.0104 269.791 35.5625C269.791 37.7083 269.067 39.3958 267.619 40.625C266.181 41.8438 264.186 42.4531 261.634 42.4531C260.561 42.4531 259.468 42.3542 258.353 42.1562C257.239 41.9583 256.145 41.6719 255.072 41.2969V38.1562C256.134 38.7083 257.181 39.1198 258.212 39.3906C259.244 39.6615 260.27 39.7969 261.291 39.7969C263.02 39.7969 264.348 39.4062 265.275 38.625C266.202 37.8438 266.666 36.7188 266.666 35.25C266.666 33.8958 266.202 32.8229 265.275 32.0312C264.348 31.2292 263.093 30.8281 261.509 30.8281H259.103V28.2344H261.509C262.957 28.2344 264.087 27.9167 264.9 27.2812C265.712 26.6458 266.119 25.7604 266.119 24.625C266.119 23.4271 265.739 22.5104 264.978 21.875C264.228 21.2292 263.155 20.9062 261.759 20.9062C260.832 20.9062 259.874 21.0104 258.884 21.2188C257.895 21.4271 256.858 21.7396 255.775 22.1562V19.25C257.035 18.9167 258.155 18.6667 259.134 18.5C260.124 18.3333 260.999 18.25 261.759 18.25C264.03 18.25 265.843 18.8229 267.197 19.9688C268.561 21.1042 269.244 22.6146 269.244 24.5C269.244 25.7812 268.884 26.849 268.166 27.7031C267.457 28.5573 266.421 29.1615 265.056 29.5156Z" fill="black"/>
</svg>
