<svg width="290" height="63" viewBox="0 0 290 63" fill="none" xmlns="http://www.w3.org/2000/svg">
<rect x="1.5" y="1.5" width="287" height="60" rx="30" fill="black" stroke="black" stroke-width="3"/>
<path d="M34 8C20.748 8 10 18.746 10 32C10 42.604 16.876 51.6 26.414 54.774C27.612 54.996 28 54.252 28 53.62V49.152C21.324 50.604 19.934 46.32 19.934 46.32C18.842 43.546 17.268 42.808 17.268 42.808C15.09 41.318 17.434 41.35 17.434 41.35C19.844 41.518 21.112 43.824 21.112 43.824C23.252 47.492 26.726 46.432 28.096 45.818C28.31 44.268 28.932 43.208 29.62 42.61C24.29 42 18.686 39.942 18.686 30.748C18.686 28.126 19.624 25.986 21.158 24.306C20.91 23.7 20.088 21.258 21.392 17.954C21.392 17.954 23.408 17.31 27.994 20.414C29.908 19.882 31.96 19.616 34 19.606C36.04 19.616 38.094 19.882 40.012 20.414C44.594 17.31 46.606 17.954 46.606 17.954C47.912 21.26 47.09 23.702 46.842 24.306C48.382 25.986 49.312 28.128 49.312 30.748C49.312 39.966 43.698 41.996 38.354 42.59C39.214 43.334 40 44.794 40 47.034V53.62C40 54.258 40.384 55.008 41.602 54.772C51.132 51.594 58 42.6 58 32C58 18.746 47.254 8 34 8Z" fill="white"/>
<path d="M81.5781 42.1094C80.8073 42.5573 80.0104 42.8906 79.1875 43.1094C78.375 43.3385 77.5417 43.4531 76.6875 43.4531C73.9792 43.4531 71.8594 42.6406 70.3281 41.0156C68.8073 39.3906 68.0469 37.1406 68.0469 34.2656C68.0469 31.3906 68.8073 29.1406 70.3281 27.5156C71.8594 25.8906 73.9792 25.0781 76.6875 25.0781C77.5312 25.0781 78.3542 25.1875 79.1562 25.4062C79.9583 25.625 80.7656 25.9635 81.5781 26.4219V29.4375C80.8177 28.7604 80.0521 28.2708 79.2812 27.9688C78.5208 27.6667 77.6562 27.5156 76.6875 27.5156C74.8854 27.5156 73.5 28.099 72.5312 29.2656C71.5625 30.4323 71.0781 32.099 71.0781 34.2656C71.0781 36.4219 71.5625 38.0885 72.5312 39.2656C73.5104 40.4323 74.8958 41.0156 76.6875 41.0156C77.6875 41.0156 78.5833 40.8646 79.375 40.5625C80.1667 40.25 80.901 39.7708 81.5781 39.125V42.1094ZM102.303 32.1562V43H99.4125V32.1562C99.4125 30.5833 99.1365 29.4271 98.5844 28.6875C98.0323 27.9479 97.1677 27.5781 95.9906 27.5781C94.6469 27.5781 93.6104 28.0573 92.8813 29.0156C92.1625 29.9635 91.8031 31.3281 91.8031 33.1094V43H88.9281V18.6875H91.8031V28.125C92.3135 27.125 93.0063 26.3698 93.8813 25.8594C94.7563 25.3385 95.7927 25.0781 96.9906 25.0781C98.7719 25.0781 100.1 25.6667 100.975 26.8438C101.86 28.0104 102.303 29.7812 102.303 32.1562ZM109.809 36.375V25.5312H112.684V36.375C112.684 37.9479 112.96 39.1042 113.513 39.8438C114.075 40.5833 114.94 40.9531 116.106 40.9531C117.46 40.9531 118.497 40.4792 119.216 39.5312C119.934 38.5729 120.294 37.2031 120.294 35.4219V25.5312H123.184V43H120.294V40.375C119.783 41.3854 119.085 42.151 118.2 42.6719C117.325 43.1927 116.299 43.4531 115.122 43.4531C113.33 43.4531 111.997 42.8698 111.122 41.7031C110.247 40.526 109.809 38.75 109.809 36.375ZM138.612 34.2031H137.659C135.982 34.2031 134.717 34.5 133.862 35.0938C133.019 35.6771 132.597 36.5521 132.597 37.7188C132.597 38.7708 132.915 39.5885 133.55 40.1719C134.185 40.7552 135.066 41.0469 136.191 41.0469C137.774 41.0469 139.019 40.5 139.925 39.4062C140.831 38.3021 141.29 36.7812 141.3 34.8438V34.2031H138.612ZM144.191 33.0156V43H141.3V40.4062C140.685 41.4479 139.909 42.2188 138.972 42.7188C138.045 43.2083 136.915 43.4531 135.581 43.4531C133.8 43.4531 132.378 42.9531 131.316 41.9531C130.253 40.9427 129.722 39.5938 129.722 37.9062C129.722 35.9583 130.373 34.4792 131.675 33.4688C132.987 32.4583 134.909 31.9531 137.441 31.9531H141.3V31.5C141.29 30.1042 140.935 29.0938 140.237 28.4688C139.54 27.8333 138.425 27.5156 136.894 27.5156C135.915 27.5156 134.925 27.6562 133.925 27.9375C132.925 28.2188 131.951 28.6302 131.003 29.1719V26.2969C132.066 25.8906 133.081 25.5885 134.05 25.3906C135.029 25.1823 135.977 25.0781 136.894 25.0781C138.342 25.0781 139.576 25.2917 140.597 25.7188C141.628 26.1458 142.461 26.7865 143.097 27.6406C143.493 28.1615 143.774 28.8073 143.941 29.5781C144.107 30.3385 144.191 31.4844 144.191 33.0156ZM164.947 32.1562V43H162.056V32.1562C162.056 30.5833 161.78 29.4271 161.228 28.6875C160.676 27.9479 159.811 27.5781 158.634 27.5781C157.291 27.5781 156.254 28.0573 155.525 29.0156C154.806 29.9635 154.447 31.3281 154.447 33.1094V43H151.572V25.5H154.447V28.125C154.957 27.125 155.65 26.3698 156.525 25.8594C157.4 25.3385 158.436 25.0781 159.634 25.0781C161.416 25.0781 162.744 25.6667 163.619 26.8438C164.504 28.0104 164.947 29.7812 164.947 32.1562ZM179.969 27.2812C180.323 26.5312 180.771 25.9792 181.312 25.625C181.865 25.2604 182.526 25.0781 183.297 25.0781C184.703 25.0781 185.693 25.625 186.266 26.7188C186.849 27.8021 187.141 29.849 187.141 32.8594V43H184.516V32.9844C184.516 30.5156 184.375 28.9844 184.094 28.3906C183.823 27.7865 183.323 27.4844 182.594 27.4844C181.76 27.4844 181.188 27.8073 180.875 28.4531C180.573 29.0885 180.422 30.599 180.422 32.9844V43H177.797V32.9844C177.797 30.4844 177.646 28.9427 177.344 28.3594C177.052 27.776 176.521 27.4844 175.75 27.4844C174.99 27.4844 174.458 27.8073 174.156 28.4531C173.865 29.0885 173.719 30.599 173.719 32.9844V43H171.109V25.5H173.719V27C174.062 26.375 174.49 25.901 175 25.5781C175.521 25.2448 176.109 25.0781 176.766 25.0781C177.557 25.0781 178.214 25.2604 178.734 25.625C179.266 25.9896 179.677 26.5417 179.969 27.2812ZM194.287 25.5H201.647V40.7656H207.35V43H193.069V40.7656H198.772V27.7344H194.287V25.5ZM198.772 18.6875H201.647V22.3281H198.772V18.6875ZM227.591 32.1562V43H224.7V32.1562C224.7 30.5833 224.424 29.4271 223.872 28.6875C223.32 27.9479 222.455 27.5781 221.278 27.5781C219.934 27.5781 218.898 28.0573 218.169 29.0156C217.45 29.9635 217.091 31.3281 217.091 33.1094V43H214.216V25.5H217.091V28.125C217.601 27.125 218.294 26.3698 219.169 25.8594C220.044 25.3385 221.08 25.0781 222.278 25.0781C224.059 25.0781 225.387 25.6667 226.262 26.8438C227.148 28.0104 227.591 29.7812 227.591 32.1562ZM236.269 40.3438H241.175V22.5156L235.894 23.7031V20.8281L241.144 19.6719H244.3V40.3438H249.144V43H236.269V40.3438ZM265.056 30.5156C266.587 30.9219 267.759 31.6458 268.572 32.6875C269.384 33.7188 269.791 35.0104 269.791 36.5625C269.791 38.7083 269.067 40.3958 267.619 41.625C266.181 42.8438 264.186 43.4531 261.634 43.4531C260.561 43.4531 259.468 43.3542 258.353 43.1562C257.239 42.9583 256.145 42.6719 255.072 42.2969V39.1562C256.134 39.7083 257.181 40.1198 258.212 40.3906C259.244 40.6615 260.27 40.7969 261.291 40.7969C263.02 40.7969 264.348 40.4062 265.275 39.625C266.202 38.8438 266.666 37.7188 266.666 36.25C266.666 34.8958 266.202 33.8229 265.275 33.0312C264.348 32.2292 263.093 31.8281 261.509 31.8281H259.103V29.2344H261.509C262.957 29.2344 264.087 28.9167 264.9 28.2812C265.712 27.6458 266.119 26.7604 266.119 25.625C266.119 24.4271 265.739 23.5104 264.978 22.875C264.228 22.2292 263.155 21.9062 261.759 21.9062C260.832 21.9062 259.874 22.0104 258.884 22.2188C257.895 22.4271 256.858 22.7396 255.775 23.1562V20.25C257.035 19.9167 258.155 19.6667 259.134 19.5C260.124 19.3333 260.999 19.25 261.759 19.25C264.03 19.25 265.843 19.8229 267.197 20.9688C268.561 22.1042 269.244 23.6146 269.244 25.5C269.244 26.7812 268.884 27.849 268.166 28.7031C267.457 29.5573 266.421 30.1615 265.056 30.5156Z" fill="white"/>
</svg>
