<svg width="450" height="450" viewBox="0 0 450 450" fill="none" xmlns="http://www.w3.org/2000/svg">
<rect width="45" height="45" fill="white"/>
<rect width="45" height="45" rx="50" fill="white"/>
<path d="M0 50C0 22.3858 22.3858 0 50 0H220V450H50C22.3858 450 0 427.614 0 400V50Z" fill="#CD2424"/>
<path d="M110 129.5C111.167 129.167 112.25 128.917 113.25 128.75C114.25 128.417 115.25 128.167 116.25 128C117.417 127.667 118.833 127.5 120.5 127.5C122.333 127.333 124 127.417 125.5 127.75C127.167 127.917 128.667 128.417 130 129.25C131.5 129.917 132.583 131 133.25 132.5C133.917 134.167 134.333 136.167 134.5 138.5C134.833 140.667 135 142.917 135 145.25C135 147.583 134.917 149.917 134.75 152.25C134.75 154.417 134.75 156.417 134.75 158.25V286C134.75 287.833 134.75 289.75 134.75 291.75C134.917 293.583 134.917 295.5 134.75 297.5C134.583 299.5 134.083 301.417 133.25 303.25C132.417 304.917 131.167 306.333 129.5 307.5C127.167 309.333 124 310.25 120 310.25C116.167 310.417 112.833 310 110 309C107 308 105.167 306.083 104.5 303.25C104 300.417 103.75 297.583 103.75 294.75C102.583 272.75 102 251.25 102 230.25C102.167 209.083 102.25 187.333 102.25 165C101.917 165.833 100.75 166.583 98.75 167.25C96.9167 167.917 94.75 168.5 92.25 169C89.9167 169.5 87.6667 169.917 85.5 170.25C83.3333 170.583 81.9167 170.75 81.25 170.75C76.9167 171.25 72.9167 170.833 69.25 169.5C65.75 168 63.75 164.667 63.25 159.5C62.5833 154.167 63.75 150 66.75 147C69.9167 144 73.9167 141.75 78.75 140.25C84.0833 138.417 89.25 136.583 94.25 134.75C99.4167 132.75 104.667 131 110 129.5Z" fill="white"/>
<path d="M450 50C450 22.3858 427.614 0 400 0H230V450H400C427.614 450 450 427.614 450 400V50Z" fill="#244ECD"/>
<path d="M340 129.5C341.167 129.167 342.25 128.917 343.25 128.75C344.25 128.417 345.25 128.167 346.25 128C347.417 127.667 348.833 127.5 350.5 127.5C352.333 127.333 354 127.417 355.5 127.75C357.167 127.917 358.667 128.417 360 129.25C361.5 129.917 362.583 131 363.25 132.5C363.917 134.167 364.333 136.167 364.5 138.5C364.833 140.667 365 142.917 365 145.25C365 147.583 364.917 149.917 364.75 152.25C364.75 154.417 364.75 156.417 364.75 158.25V286C364.75 287.833 364.75 289.75 364.75 291.75C364.917 293.583 364.917 295.5 364.75 297.5C364.583 299.5 364.083 301.417 363.25 303.25C362.417 304.917 361.167 306.333 359.5 307.5C357.167 309.333 354 310.25 350 310.25C346.167 310.417 342.833 310 340 309C337 308 335.167 306.083 334.5 303.25C334 300.417 333.75 297.583 333.75 294.75C332.583 272.75 332 251.25 332 230.25C332.167 209.083 332.25 187.333 332.25 165C331.917 165.833 330.75 166.583 328.75 167.25C326.917 167.917 324.75 168.5 322.25 169C319.917 169.5 317.667 169.917 315.5 170.25C313.333 170.583 311.917 170.75 311.25 170.75C306.917 171.25 302.917 170.833 299.25 169.5C295.75 168 293.75 164.667 293.25 159.5C292.583 154.167 293.75 150 296.75 147C299.917 144 303.917 141.75 308.75 140.25C314.083 138.417 319.25 136.583 324.25 134.75C329.417 132.75 334.667 131 340 129.5Z" fill="white"/>
</svg>
