<svg width="450" height="450" viewBox="0 0 450 450" fill="none" xmlns="http://www.w3.org/2000/svg">
<g clip-path="url(#clip0_49_828)">
<rect width="45" height="45" fill="white"/>
<rect width="45" height="45" rx="50" fill="white"/>
<path d="M0 50C0 22.3858 22.3858 0 50 0H220V450H50C22.3858 450 0 427.614 0 400V50Z" fill="#CD2424"/>
<path d="M110 190.5C111.167 190.167 112.25 189.917 113.25 189.75C114.25 189.417 115.25 189.167 116.25 189C117.417 188.667 118.833 188.5 120.5 188.5C122.333 188.333 124 188.417 125.5 188.75C127.167 188.917 128.667 189.417 130 190.25C131.5 190.917 132.583 192 133.25 193.5C133.917 195.167 134.333 197.167 134.5 199.5C134.833 201.667 135 203.917 135 206.25C135 208.583 134.917 210.917 134.75 213.25C134.75 215.417 134.75 217.417 134.75 219.25V347C134.75 348.833 134.75 350.75 134.75 352.75C134.917 354.583 134.917 356.5 134.75 358.5C134.583 360.5 134.083 362.417 133.25 364.25C132.417 365.917 131.167 367.333 129.5 368.5C127.167 370.333 124 371.25 120 371.25C116.167 371.417 112.833 371 110 370C107 369 105.167 367.083 104.5 364.25C104 361.417 103.75 358.583 103.75 355.75C102.583 333.75 102 312.25 102 291.25C102.167 270.083 102.25 248.333 102.25 226C101.917 226.833 100.75 227.583 98.75 228.25C96.9167 228.917 94.75 229.5 92.25 230C89.9167 230.5 87.6667 230.917 85.5 231.25C83.3333 231.583 81.9167 231.75 81.25 231.75C76.9167 232.25 72.9167 231.833 69.25 230.5C65.75 229 63.75 225.667 63.25 220.5C62.5833 215.167 63.75 211 66.75 208C69.9167 205 73.9167 202.75 78.75 201.25C84.0833 199.417 89.25 197.583 94.25 195.75C99.4167 193.75 104.667 192 110 190.5Z" fill="white"/>
<path d="M450 50C450 22.3858 427.614 0 400 0H230V450H400C427.614 450 450 427.614 450 400V50Z" fill="#244ECD"/>
<path d="M340 190.5C341.167 190.167 342.25 189.917 343.25 189.75C344.25 189.417 345.25 189.167 346.25 189C347.417 188.667 348.833 188.5 350.5 188.5C352.333 188.333 354 188.417 355.5 188.75C357.167 188.917 358.667 189.417 360 190.25C361.5 190.917 362.583 192 363.25 193.5C363.917 195.167 364.333 197.167 364.5 199.5C364.833 201.667 365 203.917 365 206.25C365 208.583 364.917 210.917 364.75 213.25C364.75 215.417 364.75 217.417 364.75 219.25V347C364.75 348.833 364.75 350.75 364.75 352.75C364.917 354.583 364.917 356.5 364.75 358.5C364.583 360.5 364.083 362.417 363.25 364.25C362.417 365.917 361.167 367.333 359.5 368.5C357.167 370.333 354 371.25 350 371.25C346.167 371.417 342.833 371 340 370C337 369 335.167 367.083 334.5 364.25C334 361.417 333.75 358.583 333.75 355.75C332.583 333.75 332 312.25 332 291.25C332.167 270.083 332.25 248.333 332.25 226C331.917 226.833 330.75 227.583 328.75 228.25C326.917 228.917 324.75 229.5 322.25 230C319.917 230.5 317.667 230.917 315.5 231.25C313.333 231.583 311.917 231.75 311.25 231.75C306.917 232.25 302.917 231.833 299.25 230.5C295.75 229 293.75 225.667 293.25 220.5C292.583 215.167 293.75 211 296.75 208C299.917 205 303.917 202.75 308.75 201.25C314.083 199.417 319.25 197.583 324.25 195.75C329.417 193.75 334.667 192 340 190.5Z" fill="white"/>
<rect x="40" y="41" width="374" height="85" rx="10" fill="white"/>
<path d="M87.69 83.995C87.8733 84.5083 88.0017 85.095 88.075 85.755C88.185 86.3783 88.24 87.02 88.24 87.68C88.24 88.34 88.185 89 88.075 89.66C88.0017 90.2833 87.8917 90.8333 87.745 91.31C87.1583 93.3633 85.985 95.0867 84.225 96.48C82.465 97.8367 80.4483 98.8267 78.175 99.45C75.9383 100.073 73.61 100.293 71.19 100.11C68.8067 99.9267 66.68 99.3217 64.81 98.295C63.6367 97.635 62.6283 96.8283 61.785 95.875C60.9417 94.9217 60.2267 93.8583 59.64 92.685C59.42 92.2817 59.2733 91.8233 59.2 91.31C59.1633 90.76 59.2183 90.2467 59.365 89.77C59.5117 89.2567 59.75 88.8167 60.08 88.45C60.41 88.0467 60.8683 87.7717 61.455 87.625C61.8217 87.5517 62.225 87.515 62.665 87.515C63.1417 87.515 63.6 87.5883 64.04 87.735C64.48 87.845 64.8833 88.0467 65.25 88.34C65.6167 88.5967 65.91 88.9633 66.13 89.44C66.5333 90.21 67.1017 90.925 67.835 91.585C68.605 92.2083 69.4117 92.7217 70.255 93.125C71.465 93.5283 72.675 93.6933 73.885 93.62C75.1317 93.5467 76.25 93.2717 77.24 92.795C78.2667 92.3183 79.0917 91.6767 79.715 90.87C80.3383 90.0267 80.65 89.0733 80.65 88.01C80.65 87.13 80.5217 86.415 80.265 85.865C80.0083 85.2783 79.6417 84.8017 79.165 84.435C78.725 84.0317 78.175 83.7017 77.515 83.445C76.8917 83.1883 76.195 82.9683 75.425 82.785C74.545 82.6017 73.6467 82.4733 72.73 82.4C71.85 82.3267 70.9517 82.235 70.035 82.125C69.1183 82.015 68.22 81.8683 67.34 81.685C66.46 81.5017 65.5983 81.2267 64.755 80.86C63.0683 80.1633 61.785 79.1 60.905 77.67C60.025 76.24 59.4933 74.7 59.31 73.05C59.1633 71.4 59.365 69.7683 59.915 68.155C60.465 66.505 61.345 65.0933 62.555 63.92C63.7283 62.8567 65.1217 62.105 66.735 61.665C68.385 61.1883 70.2 60.9133 72.18 60.84C73.28 60.8033 74.38 60.84 75.48 60.95C76.6167 61.06 77.6983 61.2433 78.725 61.5C79.7883 61.7567 80.76 62.0867 81.64 62.49C82.5567 62.8933 83.345 63.37 84.005 63.92C84.4817 64.2867 84.9583 64.7817 85.435 65.405C85.9117 65.9917 86.2783 66.6333 86.535 67.33C86.7917 67.99 86.865 68.6317 86.755 69.255C86.6817 69.8783 86.2967 70.41 85.6 70.85C85.0133 71.2167 84.445 71.3817 83.895 71.345C83.3817 71.2717 82.8867 71.1067 82.41 70.85C81.9333 70.5567 81.475 70.2267 81.035 69.86C80.595 69.4933 80.1917 69.1633 79.825 68.87C78.835 68.1367 77.6067 67.6417 76.14 67.385C74.6733 67.1283 73.2983 67.0733 72.015 67.22C71.2083 67.33 70.4567 67.5133 69.76 67.77C69.0633 68.0267 68.4583 68.375 67.945 68.815C67.4683 69.255 67.0833 69.805 66.79 70.465C66.5333 71.0883 66.4417 71.8033 66.515 72.61C66.5517 73.1967 66.7167 73.6917 67.01 74.095C67.34 74.4983 67.725 74.8283 68.165 75.085C68.6417 75.3417 69.155 75.5433 69.705 75.69C70.255 75.8367 70.805 75.9467 71.355 76.02C73.005 76.24 74.655 76.405 76.305 76.515C77.955 76.625 79.5683 76.9917 81.145 77.615C82.7583 78.2383 84.1333 79.0817 85.27 80.145C86.4067 81.2083 87.2133 82.4917 87.69 83.995ZM113.122 78.825C113.415 79.3383 113.562 79.8883 113.562 80.475C113.599 81.0617 113.47 81.6117 113.177 82.125C112.847 82.785 112.37 83.2433 111.747 83.5C111.16 83.72 110.5 83.7383 109.767 83.555C109.437 83.4817 109.144 83.3533 108.887 83.17C108.63 82.9867 108.355 82.8033 108.062 82.62C107.805 82.4 107.494 82.1983 107.127 82.015C106.797 81.8317 106.357 81.7033 105.807 81.63C105.257 81.5567 104.652 81.5567 103.992 81.63C103.369 81.7033 102.8 81.85 102.287 82.07C101.48 82.4733 100.839 83.0967 100.362 83.94C99.8852 84.7467 99.5736 85.6267 99.4269 86.58C99.2802 87.4967 99.2986 88.4317 99.4819 89.385C99.7019 90.3383 100.105 91.145 100.692 91.805C101.132 92.3183 101.7 92.74 102.397 93.07C103.13 93.4 103.827 93.6017 104.487 93.675C105.11 93.7483 105.734 93.7483 106.357 93.675C106.98 93.565 107.585 93.4183 108.172 93.235C108.612 93.0517 109.107 92.8133 109.657 92.52C110.207 92.19 110.739 91.9883 111.252 91.915C111.912 91.915 112.425 92.0983 112.792 92.465C113.159 92.795 113.415 93.2167 113.562 93.73C113.709 94.2067 113.727 94.72 113.617 95.27C113.544 95.82 113.342 96.2967 113.012 96.7C112.572 97.25 111.949 97.7817 111.142 98.295C110.335 98.7717 109.565 99.12 108.832 99.34C107.952 99.6333 106.962 99.7983 105.862 99.835C104.799 99.8717 103.79 99.835 102.837 99.725C102.397 99.6517 101.939 99.56 101.462 99.45C100.985 99.34 100.527 99.2117 100.087 99.065C98.4736 98.4783 97.1169 97.6533 96.0169 96.59C94.9536 95.49 94.1286 94.2617 93.5419 92.905C92.9919 91.5483 92.6802 90.1 92.6069 88.56C92.5336 87.02 92.7169 85.4983 93.1569 83.995C93.5602 82.565 94.0552 81.355 94.6419 80.365C95.2652 79.375 95.9802 78.5683 96.7869 77.945C97.6302 77.285 98.5652 76.7717 99.5919 76.405C100.619 76.0017 101.755 75.6533 103.002 75.36C104.285 75.1033 105.642 75.1033 107.072 75.36C108.502 75.6167 109.785 76.0933 110.922 76.79C111.802 77.2667 112.535 77.945 113.122 78.825ZM125.162 75.14C126.372 74.5533 127.637 74.1317 128.957 73.875C130.277 73.6183 131.579 73.5633 132.862 73.71C134.182 73.8567 135.447 74.205 136.657 74.755C137.904 75.305 139.041 76.075 140.067 77.065C140.911 77.9083 141.644 78.935 142.267 80.145C142.891 81.3183 143.349 82.4733 143.642 83.61C144.266 85.6267 144.357 87.6617 143.917 89.715C143.477 91.7683 142.726 93.675 141.662 95.435C141.149 96.2417 140.507 96.975 139.737 97.635C139.004 98.2583 138.216 98.7717 137.372 99.175C136.272 99.6883 135.081 100.037 133.797 100.22C132.514 100.44 131.267 100.495 130.057 100.385C127.857 100.275 125.914 99.725 124.227 98.735C122.577 97.745 121.239 96.48 120.212 94.94C119.222 93.4 118.562 91.6583 118.232 89.715C117.939 87.735 118.067 85.7183 118.617 83.665C119.204 81.465 120.047 79.6867 121.147 78.33C122.284 76.9367 123.622 75.8733 125.162 75.14ZM126.812 82.51C126.262 83.0233 125.841 83.665 125.547 84.435C125.254 85.205 125.071 86.0117 124.997 86.855C124.924 87.6617 124.979 88.4867 125.162 89.33C125.382 90.1367 125.712 90.87 126.152 91.53C126.519 92.08 127.179 92.5383 128.132 92.905C129.086 93.2717 130.076 93.4917 131.102 93.565C132.276 93.6383 133.302 93.3267 134.182 92.63C135.062 91.8967 135.722 90.9983 136.162 89.935C136.639 88.8717 136.859 87.7167 136.822 86.47C136.786 85.2233 136.456 84.0867 135.832 83.06C135.392 82.3267 134.769 81.795 133.962 81.465C133.192 81.0983 132.367 80.915 131.487 80.915C130.644 80.8783 129.801 81.0067 128.957 81.3C128.114 81.5567 127.399 81.96 126.812 82.51ZM148.63 80.53C148.63 80.09 148.63 79.595 148.63 79.045C148.63 78.4583 148.648 77.8717 148.685 77.285C148.722 76.6617 148.777 76.075 148.85 75.525C148.96 74.9383 149.107 74.425 149.29 73.985C149.583 73.325 150.042 72.885 150.665 72.665C151.288 72.4083 151.967 72.2983 152.7 72.335C153.47 72.335 154.075 72.4633 154.515 72.72C154.955 72.9767 155.285 73.325 155.505 73.765C155.725 74.1683 155.853 74.645 155.89 75.195C155.963 75.7083 156 76.2583 156 76.845C156.33 76.2583 156.77 75.7817 157.32 75.415C157.907 75.0483 158.493 74.755 159.08 74.535C159.667 74.315 160.198 74.1683 160.675 74.095C161.152 73.985 161.427 73.93 161.5 73.93C162.417 73.8567 163.242 73.8383 163.975 73.875C164.745 73.9117 165.588 74.0767 166.505 74.37C167.092 74.59 167.697 74.9017 168.32 75.305C168.943 75.6717 169.493 76.1117 169.97 76.625C170.447 77.1383 170.758 77.7067 170.905 78.33C171.088 78.9167 171.015 79.54 170.685 80.2C170.172 81.1167 169.603 81.575 168.98 81.575C168.357 81.5383 167.678 81.4283 166.945 81.245C166.542 81.1717 166.065 81.0067 165.515 80.75C164.965 80.4933 164.488 80.3283 164.085 80.255C162.838 80.0717 161.738 80.1633 160.785 80.53C159.832 80.8967 159.007 81.3367 158.31 81.85C157.503 82.4733 156.807 83.1883 156.22 83.995V91.915C156.22 92.905 156.202 93.9317 156.165 94.995C156.165 96.0583 156.018 97.03 155.725 97.91C155.468 98.7533 155.01 99.45 154.35 100C153.727 100.513 152.81 100.733 151.6 100.66C150.94 100.623 150.353 100.312 149.84 99.725C149.327 99.1017 149.015 98.4967 148.905 97.91C148.832 97.36 148.777 96.7 148.74 95.93C148.703 95.16 148.667 94.3533 148.63 93.51C148.63 92.6667 148.63 91.8233 148.63 90.98C148.63 90.1 148.63 89.2933 148.63 88.56V80.53ZM191.184 92.465C191.624 92.355 192.064 92.2817 192.504 92.245C192.981 92.2083 193.402 92.2633 193.769 92.41C194.172 92.5567 194.502 92.8133 194.759 93.18C195.016 93.51 195.144 93.9867 195.144 94.61C195.144 95.05 195.034 95.4717 194.814 95.875C194.594 96.2783 194.319 96.645 193.989 96.975C193.659 97.305 193.292 97.5983 192.889 97.855C192.486 98.075 192.101 98.2583 191.734 98.405C190.671 98.8817 189.442 99.2483 188.049 99.505C186.692 99.7617 185.281 99.8533 183.814 99.78C181.834 99.7067 179.927 99.3217 178.094 98.625C176.297 97.8917 174.886 96.7 173.859 95.05C172.906 93.4367 172.337 91.64 172.154 89.66C171.971 87.68 172.062 85.81 172.429 84.05C172.832 81.9233 173.511 80.2 174.464 78.88C175.454 77.5233 176.627 76.4417 177.984 75.635C179.634 74.6817 181.486 74.1867 183.539 74.15C185.592 74.1133 187.554 74.5167 189.424 75.36C190.671 75.91 191.789 76.6617 192.779 77.615C193.769 78.5317 194.521 79.65 195.034 80.97C195.181 81.3 195.291 81.7033 195.364 82.18C195.474 82.6567 195.547 83.17 195.584 83.72C195.621 84.2333 195.621 84.7467 195.584 85.26C195.547 85.7733 195.456 86.2317 195.309 86.635C195.089 87.295 194.814 87.8083 194.484 88.175C194.154 88.5417 193.732 88.8167 193.219 89C192.706 89.1833 192.082 89.3117 191.349 89.385C190.652 89.4217 189.809 89.4583 188.819 89.495C187.939 89.5317 187.114 89.55 186.344 89.55C185.574 89.55 184.786 89.55 183.979 89.55C183.172 89.5133 182.329 89.495 181.449 89.495C180.606 89.4583 179.652 89.4217 178.589 89.385C178.479 90.1183 178.571 90.76 178.864 91.31C179.194 91.8233 179.634 92.2633 180.184 92.63C180.734 92.96 181.357 93.2167 182.054 93.4C182.751 93.5833 183.429 93.6933 184.089 93.73C185.336 93.8033 186.527 93.7117 187.664 93.455C188.801 93.1617 189.974 92.8317 191.184 92.465ZM188.819 81.795C188.122 80.9883 187.389 80.4017 186.619 80.035C186.032 79.7783 185.409 79.6683 184.749 79.705C184.126 79.705 183.521 79.7967 182.934 79.98C181.871 80.2367 180.972 80.7867 180.239 81.63C180.166 81.7033 180.037 81.8867 179.854 82.18C179.671 82.4367 179.487 82.7117 179.304 83.005C179.157 83.2983 179.047 83.5733 178.974 83.83C178.901 84.0867 178.937 84.215 179.084 84.215H189.864C189.827 83.7017 189.736 83.28 189.589 82.95C189.442 82.5833 189.186 82.1983 188.819 81.795ZM229.235 90.76C229.712 91.8233 229.73 92.8683 229.29 93.895C228.85 94.885 228.153 95.8017 227.2 96.645C226.247 97.4883 225.147 98.2217 223.9 98.845C222.69 99.4683 221.535 99.9083 220.435 100.165C219.225 100.422 217.942 100.532 216.585 100.495C215.265 100.495 213.927 100.33 212.57 100C211.25 99.7067 209.948 99.2667 208.665 98.68C207.418 98.0567 206.263 97.305 205.2 96.425C203.917 95.3617 202.908 94.0967 202.175 92.63C201.478 91.1267 200.965 89.5317 200.635 87.845C200.305 86.1583 200.122 84.4717 200.085 82.785C200.085 81.0617 200.14 79.4483 200.25 77.945C200.36 76.5883 200.635 75.1767 201.075 73.71C201.515 72.2433 202.12 70.8133 202.89 69.42C203.697 67.99 204.65 66.67 205.75 65.46C206.887 64.25 208.207 63.2233 209.71 62.38C210.847 61.72 212.112 61.28 213.505 61.06C214.935 60.8033 216.365 60.7483 217.795 60.895C219.262 61.005 220.637 61.3167 221.92 61.83C223.24 62.3067 224.358 62.9667 225.275 63.81C225.862 64.3233 226.467 65.0383 227.09 65.955C227.75 66.8717 228.227 67.8067 228.52 68.76C228.813 69.7133 228.813 70.6117 228.52 71.455C228.263 72.2617 227.53 72.8117 226.32 73.105C225.807 73.2517 225.348 73.2883 224.945 73.215C224.542 73.105 224.175 72.94 223.845 72.72C223.515 72.4633 223.203 72.17 222.91 71.84C222.617 71.51 222.342 71.18 222.085 70.85C221.205 69.7867 220.178 69.0717 219.005 68.705C217.832 68.3017 216.658 68.21 215.485 68.43C214.348 68.6133 213.267 69.09 212.24 69.86C211.25 70.5933 210.48 71.5467 209.93 72.72C209.343 73.9667 208.867 75.3417 208.5 76.845C208.17 78.3117 207.987 79.815 207.95 81.355C207.913 82.8583 208.042 84.325 208.335 85.755C208.665 87.185 209.215 88.45 209.985 89.55C210.572 90.43 211.287 91.145 212.13 91.695C213.01 92.245 213.945 92.63 214.935 92.85C215.925 93.07 216.915 93.1067 217.905 92.96C218.932 92.8133 219.922 92.4833 220.875 91.97C221.168 91.8233 221.48 91.6217 221.81 91.365C222.177 91.0717 222.543 90.7783 222.91 90.485C223.277 90.1917 223.643 89.9167 224.01 89.66C224.413 89.4033 224.835 89.22 225.275 89.11C225.935 88.89 226.65 88.9083 227.42 89.165C228.227 89.4217 228.832 89.9533 229.235 90.76ZM241.124 75.14C242.334 74.5533 243.599 74.1317 244.919 73.875C246.239 73.6183 247.541 73.5633 248.824 73.71C250.144 73.8567 251.409 74.205 252.619 74.755C253.866 75.305 255.002 76.075 256.029 77.065C256.872 77.9083 257.606 78.935 258.229 80.145C258.852 81.3183 259.311 82.4733 259.604 83.61C260.227 85.6267 260.319 87.6617 259.879 89.715C259.439 91.7683 258.687 93.675 257.624 95.435C257.111 96.2417 256.469 96.975 255.699 97.635C254.966 98.2583 254.177 98.7717 253.334 99.175C252.234 99.6883 251.042 100.037 249.759 100.22C248.476 100.44 247.229 100.495 246.019 100.385C243.819 100.275 241.876 99.725 240.189 98.735C238.539 97.745 237.201 96.48 236.174 94.94C235.184 93.4 234.524 91.6583 234.194 89.715C233.901 87.735 234.029 85.7183 234.579 83.665C235.166 81.465 236.009 79.6867 237.109 78.33C238.246 76.9367 239.584 75.8733 241.124 75.14ZM242.774 82.51C242.224 83.0233 241.802 83.665 241.509 84.435C241.216 85.205 241.032 86.0117 240.959 86.855C240.886 87.6617 240.941 88.4867 241.124 89.33C241.344 90.1367 241.674 90.87 242.114 91.53C242.481 92.08 243.141 92.5383 244.094 92.905C245.047 93.2717 246.037 93.4917 247.064 93.565C248.237 93.6383 249.264 93.3267 250.144 92.63C251.024 91.8967 251.684 90.9983 252.124 89.935C252.601 88.8717 252.821 87.7167 252.784 86.47C252.747 85.2233 252.417 84.0867 251.794 83.06C251.354 82.3267 250.731 81.795 249.924 81.465C249.154 81.0983 248.329 80.915 247.449 80.915C246.606 80.8783 245.762 81.0067 244.919 81.3C244.076 81.5567 243.361 81.96 242.774 82.51ZM287.142 86.91C287.069 88.12 286.995 89.3483 286.922 90.595C286.849 91.805 286.647 92.9783 286.317 94.115C286.024 95.2517 285.547 96.2783 284.887 97.195C284.264 98.1117 283.365 98.845 282.192 99.395C281.165 99.9083 280.065 100.257 278.892 100.44C277.719 100.66 276.545 100.752 275.372 100.715C274.199 100.678 273.062 100.495 271.962 100.165C270.862 99.8717 269.872 99.45 268.992 98.9C268.112 98.35 267.397 97.635 266.847 96.755C266.297 95.875 265.857 94.9217 265.527 93.895C265.234 92.8683 265.032 91.805 264.922 90.705C264.812 89.605 264.739 88.5783 264.702 87.625C264.555 85.095 264.555 82.6017 264.702 80.145C264.702 79.6683 264.702 79.1367 264.702 78.55C264.702 77.9267 264.739 77.3217 264.812 76.735C264.922 76.1483 265.087 75.6167 265.307 75.14C265.527 74.6267 265.894 74.2417 266.407 73.985C267.507 73.3983 268.515 73.3617 269.432 73.875C270.385 74.3883 270.954 75.4517 271.137 77.065C271.247 77.9083 271.284 78.8433 271.247 79.87C271.247 80.8967 271.284 81.8317 271.357 82.675C271.394 83.9217 271.43 85.2783 271.467 86.745C271.504 88.175 271.705 89.4583 272.072 90.595C272.475 91.7317 273.117 92.5933 273.997 93.18C274.914 93.73 276.27 93.7483 278.067 93.235C278.91 92.9783 279.46 92.3367 279.717 91.31C280.01 90.2833 280.157 88.7617 280.157 86.745C280.157 85.865 280.139 84.8933 280.102 83.83C280.065 82.7667 280.047 81.7217 280.047 80.695C280.047 79.6317 280.065 78.66 280.102 77.78C280.175 76.8633 280.285 76.1667 280.432 75.69C280.615 75.03 281 74.535 281.587 74.205C282.174 73.875 282.797 73.71 283.457 73.71C284.117 73.6733 284.74 73.8017 285.327 74.095C285.914 74.3883 286.317 74.865 286.537 75.525C286.757 76.1117 286.904 76.8633 286.977 77.78C287.087 78.66 287.16 79.6317 287.197 80.695C287.234 81.7217 287.234 82.785 287.197 83.885C287.197 84.9483 287.179 85.9567 287.142 86.91ZM292.898 80.365C292.898 79.5217 292.879 78.6233 292.843 77.67C292.843 76.7167 293.008 75.855 293.338 75.085C293.631 74.3883 294.108 73.8933 294.768 73.6C295.464 73.27 296.143 73.1967 296.803 73.38C297.463 73.49 297.976 73.6917 298.343 73.985C298.709 74.2783 298.966 74.6267 299.113 75.03C299.296 75.3967 299.406 75.8367 299.443 76.35C299.479 76.8267 299.516 77.3033 299.553 77.78C299.919 77.12 300.378 76.5883 300.928 76.185C301.478 75.7817 302.046 75.4517 302.633 75.195C303.219 74.9383 303.769 74.755 304.283 74.645C304.833 74.535 305.254 74.48 305.548 74.48C306.941 74.48 308.316 74.7917 309.673 75.415C311.066 76.0017 312.221 76.845 313.138 77.945C313.651 78.605 314.036 79.3017 314.293 80.035C314.586 80.7317 314.788 81.465 314.898 82.235C315.044 83.005 315.136 83.7933 315.173 84.6C315.209 85.37 315.246 86.1583 315.283 86.965C315.466 89.3117 315.466 91.64 315.283 93.95C315.246 94.4267 315.228 94.9767 315.228 95.6C315.228 96.2233 315.173 96.8467 315.063 97.47C314.989 98.0567 314.824 98.5883 314.568 99.065C314.348 99.505 313.963 99.78 313.413 99.89C312.643 100.073 312.001 100.11 311.488 100C311.011 99.9267 310.626 99.7617 310.333 99.505C310.039 99.2483 309.819 98.9183 309.673 98.515C309.526 98.1117 309.398 97.6533 309.288 97.14C309.214 96.7367 309.141 96.2783 309.068 95.765C309.031 95.215 308.994 94.665 308.958 94.115C308.958 93.565 308.939 93.0333 308.903 92.52C308.903 91.97 308.903 91.475 308.903 91.035C308.903 90.3383 308.884 89.5683 308.848 88.725C308.811 87.8817 308.811 87.0933 308.848 86.36C308.848 84.6367 308.389 83.335 307.473 82.455C306.593 81.5383 305.383 81.1533 303.843 81.3C302.669 81.4467 301.643 81.9233 300.763 82.73C299.883 83.5 299.461 84.5083 299.498 85.755C299.498 86.2317 299.498 86.6717 299.498 87.075C299.498 87.4783 299.479 87.8817 299.443 88.285C299.443 88.6883 299.443 89.1283 299.443 89.605C299.443 90.0817 299.443 90.6133 299.443 91.2C299.443 92.41 299.443 93.6933 299.443 95.05C299.443 96.37 299.278 97.4517 298.948 98.295C298.654 99.175 298.159 99.78 297.463 100.11C296.766 100.44 295.941 100.348 294.988 99.835C294.584 99.615 294.254 99.3217 293.998 98.955C293.778 98.5517 293.594 98.13 293.448 97.69C293.338 97.25 293.264 96.81 293.228 96.37C293.191 95.8933 293.154 95.4533 293.118 95.05C293.008 93.84 292.934 92.7217 292.898 91.695C292.898 90.6317 292.898 89.495 292.898 88.285V80.365ZM341.142 75.745C341.435 76.4417 341.454 77.2117 341.197 78.055C340.977 78.8983 340.555 79.4483 339.932 79.705C339.602 79.8517 339.162 79.98 338.612 80.09C338.062 80.1633 337.457 80.2367 336.797 80.31C336.174 80.3833 335.55 80.4383 334.927 80.475C334.304 80.5117 333.772 80.53 333.332 80.53C333.369 81.63 333.405 82.7667 333.442 83.94C333.479 85.0767 333.515 86.195 333.552 87.295C333.589 88.395 333.607 89.4583 333.607 90.485C333.607 91.475 333.589 92.3733 333.552 93.18C333.552 93.73 333.552 94.3717 333.552 95.105C333.552 95.8017 333.497 96.48 333.387 97.14C333.314 97.8 333.185 98.3867 333.002 98.9C332.819 99.3767 332.544 99.6883 332.177 99.835C331.04 100.312 329.995 100.44 329.042 100.22C328.125 100.037 327.465 99.6517 327.062 99.065C326.769 98.5883 326.549 98.0383 326.402 97.415C326.255 96.755 326.145 96.095 326.072 95.435C326.035 94.7383 326.017 94.0783 326.017 93.455C326.054 92.795 326.072 92.2267 326.072 91.75C326.109 90.21 326.127 88.4683 326.127 86.525C326.164 84.545 326.182 82.565 326.182 80.585H325.357C324.917 80.585 324.349 80.585 323.652 80.585C322.992 80.5483 322.314 80.4933 321.617 80.42C320.957 80.31 320.334 80.1817 319.747 80.035C319.16 79.8517 318.739 79.595 318.482 79.265C318.079 78.7883 317.822 78.275 317.712 77.725C317.639 77.175 317.675 76.6617 317.822 76.185C318.005 75.6717 318.28 75.2317 318.647 74.865C319.014 74.4617 319.435 74.205 319.912 74.095C320.572 73.9117 321.507 73.82 322.717 73.82C323.927 73.7833 325.064 73.7833 326.127 73.82C326.09 73.4533 326.072 73.105 326.072 72.775C326.072 72.4083 326.054 72.06 326.017 71.73C325.98 71.29 325.962 70.74 325.962 70.08C325.962 69.3833 325.999 68.705 326.072 68.045C326.182 67.3483 326.347 66.7067 326.567 66.12C326.787 65.4967 327.099 65.02 327.502 64.69C328.052 64.25 328.602 64.0117 329.152 63.975C329.739 63.9017 330.27 63.975 330.747 64.195C331.26 64.415 331.682 64.745 332.012 65.185C332.379 65.5883 332.635 66.0467 332.782 66.56C332.892 67 332.984 67.5317 333.057 68.155C333.13 68.7417 333.167 69.365 333.167 70.025C333.204 70.685 333.222 71.345 333.222 72.005C333.222 72.665 333.222 73.27 333.222 73.82H333.772C334.322 73.82 334.964 73.8017 335.697 73.765C336.43 73.7283 337.145 73.7467 337.842 73.82C338.575 73.8933 339.235 74.0767 339.822 74.37C340.409 74.6267 340.849 75.085 341.142 75.745ZM362.629 92.465C363.069 92.355 363.509 92.2817 363.949 92.245C364.426 92.2083 364.848 92.2633 365.214 92.41C365.618 92.5567 365.948 92.8133 366.204 93.18C366.461 93.51 366.589 93.9867 366.589 94.61C366.589 95.05 366.479 95.4717 366.259 95.875C366.039 96.2783 365.764 96.645 365.434 96.975C365.104 97.305 364.738 97.5983 364.334 97.855C363.931 98.075 363.546 98.2583 363.179 98.405C362.116 98.8817 360.888 99.2483 359.494 99.505C358.138 99.7617 356.726 99.8533 355.259 99.78C353.279 99.7067 351.373 99.3217 349.539 98.625C347.743 97.8917 346.331 96.7 345.304 95.05C344.351 93.4367 343.783 91.64 343.599 89.66C343.416 87.68 343.508 85.81 343.874 84.05C344.278 81.9233 344.956 80.2 345.909 78.88C346.899 77.5233 348.073 76.4417 349.429 75.635C351.079 74.6817 352.931 74.1867 354.984 74.15C357.038 74.1133 358.999 74.5167 360.869 75.36C362.116 75.91 363.234 76.6617 364.224 77.615C365.214 78.5317 365.966 79.65 366.479 80.97C366.626 81.3 366.736 81.7033 366.809 82.18C366.919 82.6567 366.993 83.17 367.029 83.72C367.066 84.2333 367.066 84.7467 367.029 85.26C366.993 85.7733 366.901 86.2317 366.754 86.635C366.534 87.295 366.259 87.8083 365.929 88.175C365.599 88.5417 365.178 88.8167 364.664 89C364.151 89.1833 363.528 89.3117 362.794 89.385C362.098 89.4217 361.254 89.4583 360.264 89.495C359.384 89.5317 358.559 89.55 357.789 89.55C357.019 89.55 356.231 89.55 355.424 89.55C354.618 89.5133 353.774 89.495 352.894 89.495C352.051 89.4583 351.098 89.4217 350.034 89.385C349.924 90.1183 350.016 90.76 350.309 91.31C350.639 91.8233 351.079 92.2633 351.629 92.63C352.179 92.96 352.803 93.2167 353.499 93.4C354.196 93.5833 354.874 93.6933 355.534 93.73C356.781 93.8033 357.973 93.7117 359.109 93.455C360.246 93.1617 361.419 92.8317 362.629 92.465ZM360.264 81.795C359.568 80.9883 358.834 80.4017 358.064 80.035C357.478 79.7783 356.854 79.6683 356.194 79.705C355.571 79.705 354.966 79.7967 354.379 79.98C353.316 80.2367 352.418 80.7867 351.684 81.63C351.611 81.7033 351.483 81.8867 351.299 82.18C351.116 82.4367 350.933 82.7117 350.749 83.005C350.603 83.2983 350.493 83.5733 350.419 83.83C350.346 84.0867 350.383 84.215 350.529 84.215H361.309C361.273 83.7017 361.181 83.28 361.034 82.95C360.888 82.5833 360.631 82.1983 360.264 81.795ZM371.53 80.53C371.53 80.09 371.53 79.595 371.53 79.045C371.53 78.4583 371.549 77.8717 371.585 77.285C371.622 76.6617 371.677 76.075 371.75 75.525C371.86 74.9383 372.007 74.425 372.19 73.985C372.484 73.325 372.942 72.885 373.565 72.665C374.189 72.4083 374.867 72.2983 375.6 72.335C376.37 72.335 376.975 72.4633 377.415 72.72C377.855 72.9767 378.185 73.325 378.405 73.765C378.625 74.1683 378.754 74.645 378.79 75.195C378.864 75.7083 378.9 76.2583 378.9 76.845C379.23 76.2583 379.67 75.7817 380.22 75.415C380.807 75.0483 381.394 74.755 381.98 74.535C382.567 74.315 383.099 74.1683 383.575 74.095C384.052 73.985 384.327 73.93 384.4 73.93C385.317 73.8567 386.142 73.8383 386.875 73.875C387.645 73.9117 388.489 74.0767 389.405 74.37C389.992 74.59 390.597 74.9017 391.22 75.305C391.844 75.6717 392.394 76.1117 392.87 76.625C393.347 77.1383 393.659 77.7067 393.805 78.33C393.989 78.9167 393.915 79.54 393.585 80.2C393.072 81.1167 392.504 81.575 391.88 81.575C391.257 81.5383 390.579 81.4283 389.845 81.245C389.442 81.1717 388.965 81.0067 388.415 80.75C387.865 80.4933 387.389 80.3283 386.985 80.255C385.739 80.0717 384.639 80.1633 383.685 80.53C382.732 80.8967 381.907 81.3367 381.21 81.85C380.404 82.4733 379.707 83.1883 379.12 83.995V91.915C379.12 92.905 379.102 93.9317 379.065 94.995C379.065 96.0583 378.919 97.03 378.625 97.91C378.369 98.7533 377.91 99.45 377.25 100C376.627 100.513 375.71 100.733 374.5 100.66C373.84 100.623 373.254 100.312 372.74 99.725C372.227 99.1017 371.915 98.4967 371.805 97.91C371.732 97.36 371.677 96.7 371.64 95.93C371.604 95.16 371.567 94.3533 371.53 93.51C371.53 92.6667 371.53 91.8233 371.53 90.98C371.53 90.1 371.53 89.2933 371.53 88.56V80.53Z" fill="#222222"/>
</g>
<defs>
<clipPath id="clip0_49_828">
<rect width="45" height="45" fill="white"/>
</clipPath>
</defs>
</svg>
